<?xml version="1.0" ?><svg width="200px" height="200px" viewBox="0 0 200 200" data-name="Layer 1" id="Layer_1" xmlns="http://www.w3.org/2000/svg"><title/><path d="M75,20H40A20.06,20.06,0,0,0,20,40V75A20.06,20.06,0,0,0,40,95H75A20.06,20.06,0,0,0,95,75V40A20.06,20.06,0,0,0,75,20Zm0,55H40V40H75Zm95-27.5a10,10,0,0,0-10,10V75H125V40h17.5a10,10,0,0,0,0-20H125a20.06,20.06,0,0,0-20,20V75a20.06,20.06,0,0,0,20,20h35a20.06,20.06,0,0,0,20-20V57.5A10,10,0,0,0,170,47.5ZM75,105H40a20.06,20.06,0,0,0-20,20v35a20.06,20.06,0,0,0,20,20H75a20.06,20.06,0,0,0,20-20V125A20.06,20.06,0,0,0,75,105Zm0,55H40V125H75Zm85-55H125a20.06,20.06,0,0,0-20,20v35a20.06,20.06,0,0,0,20,20h35a20.06,20.06,0,0,0,20-20V125A20.06,20.06,0,0,0,160,105Zm0,55H125V125h35Z"/></svg>