<svg id="Layer_1" data-name="Layer 1" xmlns="http://www.w3.org/2000/svg" viewBox="0 0 512 512"><defs><style>.cls-1{fill:#5463ac;}</style></defs><title>volume-muted-other</title><path class="cls-1" d="M231.06,437.1a6.26,6.26,0,0,1-3.9-1.37L104,337.18H56.2A56.26,56.26,0,0,1,0,281V231a56.26,56.26,0,0,1,56.2-56.2H104L227.15,76.27a6.25,6.25,0,0,1,10.15,4.88V430.85a6.26,6.26,0,0,1-6.24,6.24ZM56.2,187.31A43.77,43.77,0,0,0,12.49,231v50A43.77,43.77,0,0,0,56.2,324.69h50a6.31,6.31,0,0,1,3.9,1.37l114.75,91.81V94.14L110.06,185.94a6.31,6.31,0,0,1-3.9,1.37Z"/><path class="cls-1" d="M356,337.13a6.24,6.24,0,0,1-4.42-10.66L501.34,176.72a6.24,6.24,0,0,1,8.83,8.83L360.41,335.3A6.22,6.22,0,0,1,356,337.13Z"/><path class="cls-1" d="M505.36,336.39a6.22,6.22,0,0,1-4.42-1.83L351.54,185.48a6.24,6.24,0,1,1,8.83-8.83L509.78,325.73a6.24,6.24,0,0,1-4.42,10.66Z"/></svg>