<svg id="Layer_1" data-name="Layer 1" xmlns="http://www.w3.org/2000/svg" viewBox="0 0 512 512"><defs><style>.cls-1{fill:#5463ac;}</style></defs><title>volume-other</title><path class="cls-1" d="M210.49,421a5.69,5.69,0,0,1-3.56-1.24L94.72,330H51.2A51.26,51.26,0,0,1,0,278.75V233.24A51.26,51.26,0,0,1,51.2,182H94.72L206.93,92.26a5.69,5.69,0,0,1,9.24,4.44V415.29a5.7,5.7,0,0,1-5.69,5.69ZM51.2,193.42a39.87,39.87,0,0,0-39.82,39.82v45.51A39.87,39.87,0,0,0,51.2,318.58H96.71a5.73,5.73,0,0,1,3.56,1.24L204.8,403.45V108.54L100.27,192.18a5.73,5.73,0,0,1-3.56,1.24Z"/><path class="cls-1" d="M306.41,307.54a5.69,5.69,0,0,1-4.18-9.54,62.12,62.12,0,0,0,0-84,5.68,5.68,0,1,1,8.36-7.71,73.47,73.47,0,0,1,0,99.42A5.65,5.65,0,0,1,306.41,307.54Z"/><path class="cls-1" d="M370.8,371.94a5.63,5.63,0,0,1-3.94-1.59,5.69,5.69,0,0,1-.17-8,153.16,153.16,0,0,0,0-212.62,5.69,5.69,0,0,1,8.21-7.89,164.57,164.57,0,0,1,0,228.4A5.7,5.7,0,0,1,370.8,371.94Z"/><path class="cls-1" d="M435.31,436.45a5.68,5.68,0,0,1-4.07-9.66,244.92,244.92,0,0,0,0-341.6,5.68,5.68,0,1,1,8.14-7.93,256.27,256.27,0,0,1,0,357.47A5.67,5.67,0,0,1,435.31,436.45Z"/></svg>